<?xml version="1.0" encoding="UTF-8"?>
<svg width="200" height="200" viewBox="0 0 200 200" xmlns="http://www.w3.org/2000/svg">
  <style>
    path {
      fill: #262728;
    }
    @media (prefers-color-scheme: dark) {
      path { fill: #ffffff; }
    }
  </style>
  <path id="Path" stroke="none"
        d="M 96 16.786667 C 124.826675 15.039993 153.679993 29.026672 168.933334 53.733337 C 172.013321 59.253342 165.346664 65.199997 160.039993 64.066666 C 156.693344 63.306671 154.546677 59.346664 152.41333 56.893326 C 141.973343 43.453339 126.133331 35.373337 109.386673 33.266663 C 98.640007 31.800003 87.440002 34.119995 77.213341 37.360001 C 75.480003 34.426666 74.106667 30.746674 70.746666 29.346664 C 67.440002 27.986664 63.666664 27.58667 60.186668 26.800003 C 71.119995 20.253326 83.400002 17.653336 96 16.786667 Z"/>
  <path id="path1" stroke="none"
        d="M 31.89333 29.026672 C 42.773335 30.253326 53.559998 32.679993 64.333336 34.58667 C 67.066673 34.906662 68.32 36.373337 70.066673 38.293335 C 66.653328 49.386673 63.159996 60.440002 59.333336 71.400009 C 58.426666 73.853333 56.866669 74.133331 54.453331 74.253342 C 51.186668 71.559998 49.053337 67.293335 46.68 63.826675 C 41.346664 72.479996 37.399998 81.786667 36.373333 91.986664 C 34.826664 102.893333 36.919998 113.866669 41.653336 123.746666 C 51.799995 146.773346 76.333336 161.639999 101.346672 161.253342 C 120.559998 161.440002 138.746658 152.279999 151.146667 137.813324 C 153.426682 135.266663 155.226669 131.41333 158.693344 130.533325 C 163.426682 128.799988 167.599991 131.266663 171.053329 134.306671 C 174.293335 137.293335 175 142.119995 172.426682 145.786652 C 161.800003 160.800003 146.613327 172.373337 129.279999 178.573318 C 111.493332 184.639999 91.973335 184.880005 74.013336 179.41333 C 52.626671 172.746658 34.360001 157.17334 23.906666 137.426666 C 8.706667 108.239998 12.240002 70.613327 34.226665 45.786667 C 32.066666 41.813339 29.266666 38.240005 27.10667 34.293335 C 25.84 31.240005 28.880001 28.559998 31.89333 29.026672 Z"/>
  <path id="path3" stroke="none"
        d="M 169.573318 73.58667 C 172.546677 72.066666 176.266663 72.306671 178.733337 74.653336 C 181.080002 76.706665 181.639999 80.506668 180.466675 83.306671 C 177.813339 87.559998 171.733337 88.960007 167.880005 85.386673 C 164.080002 82.160004 164.919998 75.58667 169.573318 73.58667 Z"/>
  <path id="path15" stroke="none"
        d="M 172.266663 104.293335 C 175.773331 102.946663 180.133347 103.760002 182.573318 106.706665 C 184.653336 109.546669 184.800003 113.226662 182.919998 116.213341 C 179.933334 120.813332 172.919998 121.666664 169.159988 117.480003 C 165.17334 113.453331 166.893326 106.119995 172.266663 104.293335 Z"/>
</svg>
