<?xml version="1.0" encoding="UTF-8"?>
<!-- Generated by Pixelmator Pro 3.7 -->
<svg width="200" height="200" viewBox="0 0 200 200" xmlns="http://www.w3.org/2000/svg">
  <path id="Path" fill="#ffffff" stroke="none"
        d="M 96 16.786667 C 124.826675 15.039993 153.679993 29.026672 168.933334 53.733337 C 172.013321 59.253342 165.346664 65.199997 160.039993 64.066666 C 156.693344 63.306671 154.546677 59.346664 152.41333 56.893326 C 141.973343 43.453339 126.133331 35.373337 109.386673 33.266663 C 98.640007 31.800003 87.440002 34.119995 77.213341 37.360001 C 75.480003 34.426666 74.106667 30.746674 70.746666 29.346664 C 67.440002 27.986664 63.666664 27.58667 60.186668 26.800003 C 71.119995 20.253326 83.400002 17.653336 96 16.786667 Z"/>
  <path id="path1" fill="#ffffff" stroke="none"
        d="M 31.89333 29.026672 C 42.773335 30.253326 53.559998 32.679993 64.333336 34.58667 C 67.066673 34.906662 68.32 36.373337 70.066673 38.293335 C 66.653328 49.386673 63.159996 60.440002 59.333336 71.400009 C 58.426666 73.853333 56.866669 74.133331 54.453331 74.253342 C 51.186668 71.559998 49.053337 67.293335 46.68 63.826675 C 41.346664 72.479996 37.399998 81.786667 36.373333 91.986664 C 34.826664 102.893333 36.919998 113.866669 41.653336 123.746666 C 51.799995 146.773346 76.333336 161.639999 101.346672 161.253342 C 120.559998 161.440002 138.746658 152.279999 151.146667 137.813324 C 153.426682 135.266663 155.226669 131.41333 158.693344 130.533325 C 163.426682 128.799988 167.599991 131.266663 171.053329 134.306671 C 174.293335 137.293335 175 142.119995 172.426682 145.786652 C 161.800003 160.800003 146.613327 172.373337 129.279999 178.573318 C 111.493332 184.639999 91.973335 184.880005 74.013336 179.41333 C 52.626671 172.746658 34.360001 157.17334 23.906666 137.426666 C 8.706667 108.239998 12.240002 70.613327 34.226665 45.786667 C 32.066666 41.813339 29.266666 38.240005 27.10667 34.293335 C 25.84 31.240005 28.880001 28.559998 31.89333 29.026672 Z"/>
  <path id="path2" fill="#ffffff" stroke="none"
        d="M 792.493347 48.46666 C 797 46.093338 803.040039 46.893326 805.906677 51.373337 C 809.06665 55.973343 807.253357 62.493332 802.506653 65.160004 C 797.559998 67.46666 790.906677 66.146667 788.573303 60.813339 C 786.186707 56.346664 788.226624 50.880005 792.493347 48.46666 Z"/>
  <path id="path3" fill="#ffffff" stroke="none"
        d="M 169.573318 73.58667 C 172.546677 72.066666 176.266663 72.306671 178.733337 74.653336 C 181.080002 76.706665 181.639999 80.506668 180.466675 83.306671 C 177.813339 87.559998 171.733337 88.960007 167.880005 85.386673 C 164.080002 82.160004 164.919998 75.58667 169.573318 73.58667 Z"/>
  <path id="path4" fill="#ffffff" stroke="none"
        d="M 851.293274 74.346664 C 857.453369 73.266663 864.106689 73.373337 869.17334 77.493332 C 874.266663 81.346664 875.306641 88.706665 875.360046 94.653328 C 875.23999 108.213341 875.320007 121.760002 875.186707 135.320007 C 869.746643 135.359985 864.320007 135.399994 858.879944 135.399994 C 858.866699 122.239998 859.026672 109.066673 858.866699 95.920006 C 858.693359 92.386665 857.293274 88.639999 853.306641 88.186661 C 846.866699 87.199997 842.893311 90.853333 838.200012 94.49334 C 838.506653 108.079994 838.120056 121.68 838.266663 135.266663 C 832.773376 135.320007 827.280029 135.333344 821.786682 135.359985 C 821.773376 115.466667 821.559998 95.573334 821.773376 75.666672 C 826.639954 75.746658 831.52002 75.746658 836.386658 75.693329 C 836.693359 77.933334 836.986633 80.160004 837.280029 82.386673 C 841.773376 79 845.613342 75.573334 851.293274 74.346664 Z"/>
  <path id="path5" fill="#ffffff" stroke="none"
        d="M 239.986664 73.986664 C 247.839996 73.319992 255.293335 75.093338 262.360016 78.426666 C 261.026672 82.360001 259.600006 86.266663 258.079987 90.133331 C 252.786652 87.826675 247.093353 86.106674 241.253326 86.479996 C 238.639984 86.839996 236.23999 87.319992 234.493332 89.453323 C 232.733337 92.480003 235.466675 95.200005 238.026672 96.50666 C 244.320007 99.213341 252.600006 100.386665 258.386658 104.279999 C 263.093353 107.440002 264.82666 113.239998 264.533325 118.68 C 264.199982 126.346672 258.733337 133.079987 251.399994 135.23999 C 240.066681 138.693329 227.17334 137.186676 216.506668 132.17334 C 218.093338 128.17334 219.639999 124.146667 221.080002 120.09333 C 227.533325 123.226662 234.82666 125.693329 242.066681 124.546669 C 244.146667 124.053337 246.933319 123.32 247.706665 121.066673 C 249.253326 118.186668 247.440002 115.306671 244.666656 114.173332 C 237.360016 111.013336 229.440002 110.440002 223.093338 104.920006 C 217.159988 99.920006 216.653336 90.639999 220.039993 84.080002 C 224.146667 77.173325 232.333328 74.400009 239.986664 73.986664 Z"/>
  <path id="path6" fill="#ffffff" stroke="none"
        d="M 318.626678 77.360001 C 317.58667 81.599991 316.373322 85.800003 315.306671 90.039993 C 309.573334 87.800003 303.573334 86.173325 297.519989 88.199997 C 293.986664 89.440002 291.440002 91.919998 290.079987 95.41333 C 288.053314 100.68 287.959991 106.773338 289.266663 112.226662 C 290.426666 116.41333 292.373322 120.293335 296.533325 122.160004 C 303.119995 125.306671 309.800018 123.133331 316.013336 120.293335 C 317.053314 124.519997 318.213348 128.706665 319.546661 132.839996 C 311.279999 136.880005 301.733337 137.973328 292.720001 136.226654 C 281.306671 133.866669 272.706665 123.519997 271.559998 112.053337 C 270.146667 101.359993 272.453339 89.479996 280.426666 81.759995 C 290.399994 72.306671 306.639984 71.639999 318.626678 77.360001 Z"/>
  <path id="path7" fill="#ffffff" stroke="none"
        d="M 373.76001 80.919998 C 365.76001 73.506668 353.373322 72.266663 343.266693 75.400009 C 337.026642 77.373337 331.613312 81.400009 328.373322 87.146667 C 324.226685 94.559998 323.093353 103.733337 324.41333 112.053337 C 325.41333 119.533333 328.666656 127.213341 335.026642 131.65332 C 343 137.266663 353.47998 138.23999 362.786652 136.040009 C 372.119995 133.426666 379.720001 125.186668 381.813324 115.733337 C 384.76001 104.013336 382.706665 89.639999 373.76001 80.919998 Z M 363.839996 93.480003 C 366.640015 100.293335 366.626678 108.386665 364.613312 115.41333 C 363.533325 118.90667 361.733307 122.013336 358.160004 123.41333 C 352.839996 125.826668 345.839996 123.41333 343.560028 117.933327 C 340.986664 112.013336 340.640015 104.959999 341.773315 98.68 C 342.800018 93.773338 344.946655 89.240005 350.013336 87.53334 C 355.333344 85.773331 361.706665 88.080002 363.839996 93.480003 Z"/>
  <path id="path8" fill="#ffffff" stroke="none"
        d="M 430.466675 74.479996 C 430.373322 79.813339 430.106659 85.133331 429.82666 90.46666 C 427.040009 90.080002 424.053345 89.506668 421.253326 89.759995 C 416.880005 90.479996 412.640015 93.426666 410.76001 97.480003 C 410.160004 99.546669 410.373322 101.880005 410.306671 104.013336 C 410.506683 114.453331 410.160004 124.893333 410.253326 135.34668 C 404.786652 135.426666 399.306671 135.480011 393.839996 135.519989 C 393.453339 115.559998 394.17334 95.613335 393.880005 75.653336 C 398.720001 75.706665 403.546661 75.666672 408.386688 75.546677 C 408.693329 78.360001 408.986664 81.160004 409.266693 83.973343 C 411.986664 80.613327 414.319977 77.440002 418.319977 75.493332 C 422.199982 73.573334 426.306671 74.279999 430.466675 74.479996 Z"/>
  <path id="path9" fill="#ffffff" stroke="none"
        d="M 476.026642 74.080002 C 482.053345 74.493332 485.613312 78.039993 488.946655 82.639999 C 493.666687 78.253342 498.733337 74.680008 505.320007 73.973343 C 510.466675 73.41333 516.706665 74.360001 520.58667 78.066666 C 524.52002 82.013336 525.640015 87.973343 525.76001 93.32 C 525.946655 107.346672 525.693298 121.359993 525.706665 135.373322 C 520.159973 135.453339 514.626648 135.453339 509.080017 135.34668 C 509.186707 122.653328 509.146667 109.959999 509.146667 97.279999 C 509 93.693329 508.986633 89.973343 505.093323 88.453323 C 498.986633 86.893326 494.733337 90.786667 490.426666 94.400002 C 490.786652 108.040001 490.253326 121.706665 490.41333 135.373322 C 485.013336 135.320007 479.600006 135.306671 474.199982 135.373322 C 474.06665 122.279999 474.47998 109.160004 474.146637 96.079994 C 474.026642 92.58667 472.946655 89.199997 469.079987 88.479996 C 463.613312 87.46666 459.106659 91.506668 455.053345 94.50666 C 455.306671 108.119995 454.986664 121.733337 455.079987 135.34668 C 449.573334 135.440002 444.053345 135.453339 438.546661 135.373322 C 438.706665 115.466667 438.453339 95.58667 438.359985 75.680008 C 443.186676 75.746658 448.013336 75.733337 452.839996 75.613327 C 453.319977 77.906662 453.786652 80.199997 454.23999 82.493332 C 460.319977 76.440002 467.160004 72.786667 476.026642 74.080002 Z"/>
  <path id="path10" fill="#ffffff" stroke="none"
        d="M 640.333313 84.986664 C 638.266663 79.333328 632.279968 75.853333 626.65332 74.653336 C 614.93335 72.546677 603.600037 75.066666 592.893372 79.906662 C 594.333313 83.893326 595.76001 87.880005 597.17334 91.880005 C 603.960022 88.986664 611.306702 86.559998 618.786682 87.306671 C 621.946655 87.520004 623.799988 89.453323 626 91.426666 C 625.946655 93.866669 625.93335 96.306671 625.906677 98.733337 C 616.359985 98.986664 606.093323 99.32 597.640015 104.306671 C 587.34668 110.146667 586.706665 127.373329 596.853333 133.746674 C 606.693298 140.013336 619.053345 137.026672 627.146667 129.306671 C 627.666687 131.320007 628.200012 133.34668 628.720032 135.359985 C 633.533325 135.373322 638.34668 135.386658 643.159973 135.386658 C 641.804688 128.647461 641.884155 121.546364 641.963013 114.497284 C 641.997437 111.421265 642.031738 108.355148 641.946655 105.333336 C 641.899353 103.687843 641.92572 101.961006 641.952576 100.200569 C 642.031677 95.014069 642.115234 89.535873 640.333313 84.986664 Z M 626.104004 111.684601 C 626.144287 114.185883 626.184937 116.707359 625.840027 119.160004 C 622.06665 122.920006 615.93335 125.49334 610.613342 124.239998 C 606.133362 122.880005 604.679993 116.559998 608.013367 113.306671 C 611.693665 109.287491 618.414734 109.046173 623.861328 108.850609 C 624.63031 108.822998 625.373962 108.796295 626.080017 108.760002 C 626.07251 109.728203 626.088257 110.704849 626.104004 111.684601 Z"/>
  <path id="path11" fill="#ffffff" stroke="none"
        d="M 696.17334 79.360001 C 691.546631 76.46666 686.93335 74.080002 681.34668 73.973343 C 671.773376 73.293335 662.133362 78.546677 657.866638 87.186661 C 653.186707 96.200005 652.919983 107.613335 654.786682 117.400002 C 657.093323 127.786659 666.58667 135.559998 677.333313 135.119995 C 683.719971 135.34668 688.853333 132.573334 694.106689 129.320007 C 694.080994 130.183899 694.087036 131.02829 694.092957 131.858002 C 694.114807 134.908386 694.135193 137.760254 692.573303 140.653351 C 690.679993 144.546661 686.866699 146.573334 682.733337 147.253326 C 674.786682 148.186676 667.58667 146.013336 660.426697 142.800018 C 659.226685 147.253326 657.773315 151.626678 656.359985 156 C 666.546631 159.933334 677.133301 161.893326 688.026672 160.053329 C 694.093323 158.960007 700.573303 156.106674 704.493347 151.199982 C 708.799988 145.906647 710.213318 138.706665 710.23999 132.040009 C 710.266663 113.253334 710.266663 94.466667 710.360046 75.666672 C 705.773376 75.693329 701.186707 75.653336 696.600037 75.58667 C 696.453369 76.839996 696.306641 78.093338 696.17334 79.360001 Z M 692.912476 89.673866 C 693.289001 89.857483 693.668762 90.042641 694.053284 90.226669 C 693.879944 99.146667 693.973328 108.066673 694.133301 116.986664 C 694.00708 117.071823 693.881165 117.156883 693.755554 117.241745 C 689.436218 120.159691 685.451294 122.851738 679.879944 121.880005 C 674.746643 121.373329 672.053284 116.640007 671.34668 111.986664 C 670.693359 106.466667 670.533386 100.333336 672.34668 95 C 673.973328 90.479996 677.946716 87.440002 682.719971 87 C 686.595093 86.593369 689.633301 88.074867 692.912476 89.673866 Z"/>
  <path id="path12" fill="#ffffff" stroke="none"
        d="M 772.386658 84.693329 C 769.613342 78 762.906677 74.773331 756.026672 74.106674 C 744.946716 72.893326 734.65332 75.720001 724.546631 79.960007 C 726.106689 83.880005 727.719971 87.786667 729.333313 91.693329 C 736.506653 88.786667 746.906677 84.933334 754.399963 88.293335 C 757.924194 89.998253 757.971069 92.837967 758.022949 95.978241 C 758.037598 96.865547 758.052673 97.776848 758.146667 98.693329 C 747.746643 99.119995 737.013367 99.200005 728.200012 105.559998 C 719.466614 112.053337 719.786682 126.519997 728.146667 133.17334 C 733.76001 137.41333 741.440002 137.76001 748.013367 135.946655 C 752.493347 134.679993 755.773376 131.920013 759.399963 129.186676 C 759.879944 131.23999 760.333313 133.293335 760.799988 135.359985 C 765.613342 135.41333 770.41333 135.41333 775.226624 135.373322 C 773.784302 128.608826 773.885742 121.925575 773.990417 115.028305 C 774.038635 111.851662 774.087524 108.629616 773.986633 105.333336 C 773.935425 103.643135 773.958557 101.873367 773.982056 100.071045 C 774.050476 94.835548 774.122437 89.325409 772.386658 84.693329 Z M 758.320007 118.986664 C 753.613342 122.68 749.06665 125.746666 742.746643 124.133331 C 737.666687 122.799995 737.053284 115.880005 740.65332 112.640007 C 745 108.720001 752.706726 109.066673 758.17334 108.640007 C 758.213318 112.079994 758.253357 115.533333 758.320007 118.986664 Z"/>
  <path id="path13" fill="#ffffff" stroke="none"
        d="M 789.58667 75.733337 C 795.040039 75.759995 800.47998 75.720001 805.919983 75.58667 C 806.053284 95.519997 805.626648 115.466667 806.106689 135.399994 C 800.58667 135.466675 795.053284 135.480011 789.52002 135.426666 C 789.639954 115.533333 789.453369 95.626671 789.58667 75.733337 Z"/>
  <path id="path14" fill="#ffffff" stroke="none"
        d="M 540.693298 98.119995 C 552.960022 98.200005 565.226685 98.040001 577.493347 98.279999 C 577.493347 102.720001 577.506653 107.146667 577.559998 111.573334 C 565.320007 111.973335 553.039978 111.880005 540.786682 111.653328 C 540.720032 107.146667 540.693298 102.626671 540.693298 98.119995 Z"/>
  <path id="path15" fill="#ffffff" stroke="none"
        d="M 172.266663 104.293335 C 175.773331 102.946663 180.133347 103.760002 182.573318 106.706665 C 184.653336 109.546669 184.800003 113.226662 182.919998 116.213341 C 179.933334 120.813332 172.919998 121.666664 169.159988 117.480003 C 165.17334 113.453331 166.893326 106.119995 172.266663 104.293335 Z"/>
</svg>
