<?xml version="1.0" encoding="UTF-8"?>
<!-- Generated by Pixelmator Pro 3.7 -->
<svg width="933" height="253" viewBox="0 0 933 253" xmlns="http://www.w3.org/2000/svg">
  <style>
    path {
    fill: black;
    }
    @media (prefers-color-scheme: dark) {
    path { fill: white; }
    }
  </style>
  <path id="Path" fill="#262728" stroke="none"
        d="M 116 49.786667 C 144.826675 48.039993 173.679993 62.026672 188.933334 86.733337 C 192.013321 92.253342 185.346664 98.199997 180.039993 97.066666 C 176.693344 96.306671 174.546677 92.346664 172.41333 89.893326 C 161.973343 76.453339 146.133331 68.373337 129.386673 66.266663 C 118.640007 64.800003 107.440002 67.119995 97.213341 70.360001 C 95.480003 67.426666 94.106667 63.746674 90.746666 62.346664 C 87.440002 60.986664 83.666664 60.58667 80.186668 59.800003 C 91.119995 53.253326 103.400002 50.653336 116 49.786667 Z"/>
  <path id="path1" fill="#262728" stroke="none"
        d="M 51.89333 62.026672 C 62.773335 63.253326 73.559998 65.679993 84.333336 67.58667 C 87.066673 67.906662 88.32 69.373337 90.066673 71.293335 C 86.653328 82.386673 83.159996 93.440002 79.333336 104.400009 C 78.426666 106.853333 76.866669 107.133331 74.453331 107.253342 C 71.186668 104.559998 69.053337 100.293335 66.68 96.826675 C 61.346664 105.479996 57.399998 114.786667 56.373333 124.986664 C 54.826664 135.893341 56.919998 146.866669 61.653336 156.746674 C 71.799995 179.773346 96.333336 194.639999 121.346672 194.253342 C 140.559998 194.440002 158.746658 185.279999 171.146667 170.813324 C 173.426682 168.266663 175.226669 164.41333 178.693344 163.533325 C 183.426682 161.799988 187.599991 164.266663 191.053329 167.306671 C 194.293335 170.293335 195 175.119995 192.426682 178.786652 C 181.800003 193.800003 166.613327 205.373337 149.279999 211.573318 C 131.493332 217.639999 111.973335 217.880005 94.013336 212.41333 C 72.626671 205.746658 54.360001 190.17334 43.906666 170.426666 C 28.706667 141.23999 32.240002 103.613327 54.226665 78.786667 C 52.066666 74.813339 49.266666 71.240005 47.10667 67.293335 C 45.84 64.240005 48.880001 61.559998 51.89333 62.026672 Z"/>
  <path id="path2" fill="#262728" stroke="none"
        d="M 812.493347 81.46666 C 817 79.093338 823.040039 79.893326 825.906677 84.373337 C 829.06665 88.973343 827.253357 95.493332 822.506653 98.160004 C 817.559998 100.46666 810.906677 99.146667 808.573303 93.813339 C 806.186707 89.346664 808.226624 83.880005 812.493347 81.46666 Z"/>
  <path id="path3" fill="#262728" stroke="none"
        d="M 189.573318 106.58667 C 192.546677 105.066666 196.266663 105.306671 198.733337 107.653336 C 201.080002 109.706665 201.639999 113.506668 200.466675 116.306671 C 197.813339 120.559998 191.733337 121.960007 187.880005 118.386673 C 184.080002 115.160004 184.919998 108.58667 189.573318 106.58667 Z"/>
  <path id="path4" fill="#262728" stroke="none"
        d="M 871.293274 107.346664 C 877.453369 106.266663 884.106689 106.373337 889.17334 110.493332 C 894.266663 114.346664 895.306641 121.706665 895.360046 127.653328 C 895.23999 141.213348 895.320007 154.76001 895.186707 168.320007 C 889.746643 168.359985 884.320007 168.399994 878.879944 168.399994 C 878.866699 155.23999 879.026672 142.066681 878.866699 128.920013 C 878.693359 125.386665 877.293274 121.639999 873.306641 121.186661 C 866.866699 120.199997 862.893311 123.853333 858.200012 127.49334 C 858.506653 141.079987 858.120056 154.679993 858.266663 168.266663 C 852.773376 168.320007 847.280029 168.333344 841.786682 168.359985 C 841.773376 148.466675 841.559998 128.573334 841.773376 108.666672 C 846.639954 108.746658 851.52002 108.746658 856.386658 108.693329 C 856.693359 110.933334 856.986633 113.160004 857.280029 115.386673 C 861.773376 112 865.613342 108.573334 871.293274 107.346664 Z"/>
  <path id="path5" fill="#262728" stroke="none"
        d="M 259.986664 106.986664 C 267.839996 106.319992 275.293335 108.093338 282.360016 111.426666 C 281.026672 115.360001 279.600006 119.266663 278.079987 123.133331 C 272.786652 120.826675 267.093353 119.106674 261.253326 119.479996 C 258.639984 119.839996 256.23999 120.319992 254.493332 122.453323 C 252.733337 125.480003 255.466675 128.200012 258.026672 129.506653 C 264.320007 132.213348 272.600006 133.386658 278.386658 137.279999 C 283.093353 140.440002 284.82666 146.23999 284.533325 151.679993 C 284.199982 159.34668 278.733337 166.079987 271.399994 168.23999 C 260.066681 171.693329 247.17334 170.186676 236.506668 165.17334 C 238.093338 161.17334 239.639999 157.146667 241.080002 153.093323 C 247.533325 156.226654 254.82666 158.693329 262.066681 157.546661 C 264.146667 157.053345 266.933319 156.320007 267.706665 154.066681 C 269.253326 151.186676 267.440002 148.306671 264.666656 147.17334 C 257.360016 144.013336 249.440002 143.440002 243.093338 137.920013 C 237.159988 132.920013 236.653336 123.639999 240.039993 117.080002 C 244.146667 110.173325 252.333328 107.400009 259.986664 106.986664 Z"/>
  <path id="path6" fill="#262728" stroke="none"
        d="M 338.626678 110.360001 C 337.58667 114.599991 336.373322 118.800003 335.306671 123.039993 C 329.573334 120.800003 323.573334 119.173325 317.519989 121.199997 C 313.986664 122.440002 311.440002 124.919998 310.079987 128.41333 C 308.053314 133.679993 307.959991 139.773346 309.266663 145.226654 C 310.426666 149.41333 312.373322 153.293335 316.533325 155.160004 C 323.119995 158.306671 329.800018 156.133331 336.013336 153.293335 C 337.053314 157.519989 338.213348 161.706665 339.546661 165.839996 C 331.279999 169.880005 321.733337 170.973328 312.720001 169.226654 C 301.306671 166.866669 292.706665 156.519989 291.559998 145.053345 C 290.146667 134.359985 292.453339 122.479996 300.426666 114.759995 C 310.399994 105.306671 326.639984 104.639999 338.626678 110.360001 Z"/>
  <path id="path7" fill="#262728" stroke="none"
        d="M 393.76001 113.919998 C 385.76001 106.506668 373.373322 105.266663 363.266693 108.400009 C 357.026642 110.373337 351.613312 114.400009 348.373322 120.146667 C 344.226685 127.559998 343.093353 136.733337 344.41333 145.053345 C 345.41333 152.533325 348.666656 160.213348 355.026642 164.65332 C 363 170.266663 373.47998 171.23999 382.786652 169.040009 C 392.119995 166.426666 399.720001 158.186676 401.813324 148.733337 C 404.76001 137.013336 402.706665 122.639999 393.76001 113.919998 Z M 383.839996 126.480003 C 386.640015 133.293335 386.626678 141.386658 384.613312 148.41333 C 383.533325 151.906677 381.733307 155.013336 378.160004 156.41333 C 372.839996 158.82666 365.839996 156.41333 363.560028 150.933319 C 360.986664 145.013336 360.640015 137.959991 361.773315 131.679993 C 362.800018 126.773338 364.946655 122.240005 370.013336 120.53334 C 375.333344 118.773331 381.706665 121.080002 383.839996 126.480003 Z"/>
  <path id="path8" fill="#262728" stroke="none"
        d="M 450.466675 107.479996 C 450.373322 112.813339 450.106659 118.133331 449.82666 123.46666 C 447.040009 123.080002 444.053345 122.506668 441.253326 122.759995 C 436.880005 123.479996 432.640015 126.426666 430.76001 130.480011 C 430.160004 132.546661 430.373322 134.880005 430.306671 137.013336 C 430.506683 147.453339 430.160004 157.893341 430.253326 168.34668 C 424.786652 168.426666 419.306671 168.480011 413.839996 168.519989 C 413.453339 148.559998 414.17334 128.613342 413.880005 108.653336 C 418.720001 108.706665 423.546661 108.666672 428.386688 108.546677 C 428.693329 111.360001 428.986664 114.160004 429.266693 116.973343 C 431.986664 113.613327 434.319977 110.440002 438.319977 108.493332 C 442.199982 106.573334 446.306671 107.279999 450.466675 107.479996 Z"/>
  <path id="path9" fill="#262728" stroke="none"
        d="M 496.026642 107.080002 C 502.053345 107.493332 505.613312 111.039993 508.946655 115.639999 C 513.666687 111.253342 518.733337 107.680008 525.320007 106.973343 C 530.466675 106.41333 536.706665 107.360001 540.58667 111.066666 C 544.52002 115.013336 545.640015 120.973343 545.76001 126.32 C 545.946655 140.34668 545.693298 154.359985 545.706665 168.373322 C 540.159973 168.453339 534.626648 168.453339 529.080017 168.34668 C 529.186707 155.65332 529.146667 142.959991 529.146667 130.279999 C 529 126.693329 528.986633 122.973343 525.093323 121.453323 C 518.986633 119.893326 514.733337 123.786667 510.426666 127.400002 C 510.786652 141.040009 510.253326 154.706665 510.41333 168.373322 C 505.013336 168.320007 499.600006 168.306671 494.199982 168.373322 C 494.06665 155.279999 494.47998 142.160004 494.146637 129.079987 C 494.026642 125.58667 492.946655 122.199997 489.079987 121.479996 C 483.613312 120.46666 479.106659 124.506668 475.053345 127.50666 C 475.306671 141.119995 474.986664 154.733337 475.079987 168.34668 C 469.573334 168.440002 464.053345 168.453339 458.546661 168.373322 C 458.706665 148.466675 458.453339 128.58667 458.359985 108.680008 C 463.186676 108.746658 468.013336 108.733337 472.839996 108.613327 C 473.319977 110.906662 473.786652 113.199997 474.23999 115.493332 C 480.319977 109.440002 487.160004 105.786667 496.026642 107.080002 Z"/>
  <path id="path10" fill="#262728" stroke="none"
        d="M 660.333313 117.986664 C 658.266663 112.333328 652.279968 108.853333 646.65332 107.653336 C 634.93335 105.546677 623.600037 108.066666 612.893372 112.906662 C 614.333313 116.893326 615.76001 120.880005 617.17334 124.880005 C 623.960022 121.986664 631.306702 119.559998 638.786682 120.306671 C 641.946655 120.520004 643.799988 122.453323 646 124.426666 C 645.946655 126.866669 645.93335 129.306671 645.906677 131.733337 C 636.359985 131.986664 626.093323 132.320007 617.640015 137.306671 C 607.34668 143.146667 606.706665 160.373322 616.853333 166.746674 C 626.693298 173.013336 639.053345 170.026672 647.146667 162.306671 C 647.666687 164.320007 648.200012 166.34668 648.720032 168.359985 C 653.533325 168.373322 658.34668 168.386658 663.159973 168.386658 C 661.804688 161.647461 661.884155 154.546356 661.963013 147.497284 C 661.997437 144.421265 662.031738 141.355148 661.946655 138.333344 C 661.899353 136.687836 661.92572 134.960999 661.952576 133.200562 C 662.031677 128.014069 662.115234 122.535873 660.333313 117.986664 Z M 646.104004 144.684601 C 646.144287 147.185883 646.184937 149.707367 645.840027 152.160004 C 642.06665 155.920013 635.93335 158.493347 630.613342 157.23999 C 626.133362 155.880005 624.679993 149.559998 628.013367 146.306671 C 631.693665 142.287491 638.414734 142.046173 643.861328 141.850616 C 644.63031 141.822998 645.373962 141.796295 646.080017 141.76001 C 646.07251 142.72821 646.088257 143.704849 646.104004 144.684601 Z"/>
  <path id="path11" fill="#262728" stroke="none"
        d="M 716.17334 112.360001 C 711.546631 109.46666 706.93335 107.080002 701.34668 106.973343 C 691.773376 106.293335 682.133362 111.546677 677.866638 120.186661 C 673.186707 129.200012 672.919983 140.613342 674.786682 150.399994 C 677.093323 160.786652 686.58667 168.559998 697.333313 168.119995 C 703.719971 168.34668 708.853333 165.573334 714.106689 162.320007 C 714.080994 163.183899 714.087036 164.02829 714.092957 164.858002 C 714.114807 167.908386 714.135193 170.760254 712.573303 173.653351 C 710.679993 177.546661 706.866699 179.573334 702.733337 180.253326 C 694.786682 181.186676 687.58667 179.013336 680.426697 175.800018 C 679.226685 180.253326 677.773315 184.626678 676.359985 189 C 686.546631 192.933334 697.133301 194.893326 708.026672 193.053329 C 714.093323 191.960007 720.573303 189.106674 724.493347 184.199982 C 728.799988 178.906647 730.213318 171.706665 730.23999 165.040009 C 730.266663 146.253326 730.266663 127.466667 730.360046 108.666672 C 725.773376 108.693329 721.186707 108.653336 716.600037 108.58667 C 716.453369 109.839996 716.306641 111.093338 716.17334 112.360001 Z M 712.912476 122.673859 C 713.289001 122.857483 713.668762 123.042633 714.053284 123.226669 C 713.879944 132.146667 713.973328 141.066681 714.133301 149.986664 C 714.00708 150.071823 713.881165 150.156891 713.755554 150.241745 C 709.436218 153.159698 705.451294 155.851746 699.879944 154.880005 C 694.746643 154.373322 692.053284 149.640015 691.34668 144.986664 C 690.693359 139.466675 690.533386 133.333344 692.34668 128 C 693.973328 123.479996 697.946716 120.440002 702.719971 120 C 706.595093 119.593369 709.633301 121.07486 712.912476 122.673859 Z"/>
  <path id="path12" fill="#262728" stroke="none"
        d="M 792.386658 117.693329 C 789.613342 111 782.906677 107.773331 776.026672 107.106674 C 764.946716 105.893326 754.65332 108.720001 744.546631 112.960007 C 746.106689 116.880005 747.719971 120.786667 749.333313 124.693329 C 756.506653 121.786667 766.906677 117.933334 774.399963 121.293335 C 777.924194 122.99826 777.971069 125.837967 778.022949 128.978241 C 778.037598 129.86554 778.052673 130.776855 778.146667 131.693329 C 767.746643 132.119995 757.013367 132.200012 748.200012 138.559998 C 739.466614 145.053345 739.786682 159.519989 748.146667 166.17334 C 753.76001 170.41333 761.440002 170.76001 768.013367 168.946655 C 772.493347 167.679993 775.773376 164.920013 779.399963 162.186676 C 779.879944 164.23999 780.333313 166.293335 780.799988 168.359985 C 785.613342 168.41333 790.41333 168.41333 795.226624 168.373322 C 793.784302 161.608826 793.885742 154.925568 793.990417 148.028305 C 794.038635 144.851654 794.087524 141.629608 793.986633 138.333344 C 793.935425 136.643127 793.958557 134.873367 793.982056 133.071045 C 794.050476 127.835548 794.122437 122.325409 792.386658 117.693329 Z M 778.320007 151.986664 C 773.613342 155.679993 769.06665 158.746674 762.746643 157.133331 C 757.666687 155.799988 757.053284 148.880005 760.65332 145.640015 C 765 141.720001 772.706726 142.066681 778.17334 141.640015 C 778.213318 145.079987 778.253357 148.533325 778.320007 151.986664 Z"/>
  <path id="path13" fill="#262728" stroke="none"
        d="M 809.58667 108.733337 C 815.040039 108.759995 820.47998 108.720001 825.919983 108.58667 C 826.053284 128.519989 825.626648 148.466675 826.106689 168.399994 C 820.58667 168.466675 815.053284 168.480011 809.52002 168.426666 C 809.639954 148.533325 809.453369 128.626678 809.58667 108.733337 Z"/>
  <path id="path14" fill="#262728" stroke="none"
        d="M 560.693298 131.119995 C 572.960022 131.200012 585.226685 131.040009 597.493347 131.279999 C 597.493347 135.720001 597.506653 140.146667 597.559998 144.573334 C 585.320007 144.973328 573.039978 144.880005 560.786682 144.65332 C 560.720032 140.146667 560.693298 135.626678 560.693298 131.119995 Z"/>
  <path id="path15" fill="#262728" stroke="none"
        d="M 192.266663 137.293335 C 195.773331 135.946655 200.133347 136.76001 202.573318 139.706665 C 204.653336 142.546661 204.800003 146.226654 202.919998 149.213348 C 199.933334 153.813324 192.919998 154.666656 189.159988 150.480011 C 185.17334 146.453339 186.893326 139.119995 192.266663 137.293335 Z"/>
</svg>
